<svg xmlns="http://www.w3.org/2000/svg" version="1.1" xmlns:xlink="http://www.w3.org/1999/xlink" xmlns:svgjs="http://svgjs.dev/svgjs" width="1000" height="1000" viewBox="0 0 1000 1000"><rect width="1000" height="1000" fill="#00000000"></rect><g transform="matrix(0.7,0,0,0.7,150,106.25)"><svg viewBox="0 0 320 360" data-background-color="#ffffff" preserveAspectRatio="xMidYMid meet" height="1125" width="1000" xmlns="http://www.w3.org/2000/svg" xmlns:xlink="http://www.w3.org/1999/xlink"><g id="tight-bounds" transform="matrix(1,0,0,1,0,0)"><svg viewBox="0 0 320 360" height="360" width="320"><g><svg></svg></g><g><svg viewBox="0 0 320 360" height="360" width="320"><g><path xmlns="http://www.w3.org/2000/svg" d="M219.58 41.008c0.707 0 6.365 2.829 9.547 3.89-1.061 0.354-3.536-0.707-6.365-1.768 0.707 0 2.122 0.354 3.536 1.06-0.707-0.707-6.011-2.475-6.718-3.182M166.895 30.047c1.061-0.354 13.436 1.414 19.094 1.768 0.354-0.354-0.707-0.354-2.122-0.707 1.768-0.354 5.304 0.707 7.779 1.06-7.425 0.354-15.558-1.768-22.629-1.06-2.475 0-0.707-0.707-2.122-1.061M156.641 30.047c6.365 0 11.315 0 2.121 0.707-1.061-0.354-2.475-0.354-2.121-0.707M256.707 59.395c0.707 0 3.536 3.182 4.95 4.243-0.354 0.354-3.182-2.475-4.596-3.536 0.354 0.354 0 0-0.354-0.707M249.635 54.798c-2.829-2.475-3.889-2.475-4.243-3.889 2.475 1.414 4.243 2.829 4.243 3.889M204.022 32.522c0.354-0.354 1.061 0.354 2.829 0.707-2.122-0.354-1.768 0-1.061 0.707-2.475-0.354-3.182-0.707-2.475-1.414 1.414 0.707 1.768 0.354 0.707 0M103.602 36.765c0-0.354 1.414-1.061 2.475-1.414-1.061 0.707-0.707 1.061 1.061 0.353 0 0.354-2.122 1.061-3.536 1.768 0.707-0.354 1.414-1.414 0-0.707M211.094 28.986c-1.061 0.354-4.95-1.768-8.84-2.475-2.122-0.707 8.486 1.768 8.84 2.475M2.475 203.66c2.122 8.84 0.707 8.486 0 0M2.829 150.621c0.354-1.414 0.707-5.304 1.06-4.95-1.061 8.486-2.829 12.376-3.182 18.74 1.061-5.657-0.354 3.182-0.707 5.304 0.354 2.829 0.354-1.768 1.061-1.06 0.707 1.061-1.414 15.912-0.707 7.779-0.707 7.425 0 15.558 1.414 17.679-1.768 11.315 7.072 36.773 8.84 42.077 0.354 0.354 0-1.768 0.707-0.353 0.707 4.597 3.889 7.779 4.95 12.729 1.061 1.414 5.304 9.193 6.011 10.962 1.414 2.829 2.122 2.475 3.536 5.303 4.243 8.133 10.961 15.912 17.326 23.337 20.508 24.044 51.978 43.845 86.984 50.918 35.006 7.425 71.779 2.122 100.419-11.669 1.768-1.061 1.414-1.414 3.536-2.122 9.901-3.182 21.923-13.436 28.641-17.326 3.182-3.536 11.669-9.547 12.73-13.082 6.011-4.95 12.022-13.083 15.204-18.387 1.768-2.829 3.182-2.829 3.889-4.597-0.354 0 5.657-7.425 7.426-11.668-0.707 0-1.768 2.122-1.768 0 12.729-24.398 19.801-57.282 15.911-79.912 0.707 27.934-6.365 59.05-19.801 78.851-6.011 12.729-18.387 26.519-29.701 36.42-1.768 1.768-3.536 3.889-5.658 5.304-6.718 5.657-14.144 10.254-21.922 14.497-18.387 10.254-38.895 19.094-62.94 19.447 41.37-3.536 78.497-24.398 99.006-49.856-15.558 15.204-22.276 21.215-39.602 30.055-1.414 2.475-13.083 7.425-20.862 9.547 4.597-2.122 14.144-5.657 17.326-8.486-25.812 12.376-54.453 19.448-81.326 15.558 10.254 0 24.751 0.354 38.541-2.121 2.122-0.707 3.182-1.414 5.658-1.768 26.873-6.011 52.685-19.094 71.072-37.481-10.608 9.547-26.519 20.862-36.774 24.398 9.547-5.304 26.873-15.558 32.53-23.337-11.315 11.315-32.53 22.63-45.966 27.58-2.122 0.354 1.414-1.414-2.122 0-4.243 1.061-2.475 1.061-3.536 1.768-16.265 4.597-35.006 8.486-50.563 7.072-2.829-0.354-3.889-1.061-6.365-1.061-2.829-0.354-5.304-0.354-8.486-0.354-12.376-1.414-25.812-6.365-35.713-10.607-5.304-2.475-10.608-4.243-15.912-7.426-4.243-2.475-7.779-5.304-11.314-8.132-13.436-9.901-24.751-19.801-35.36-33.945-19.094-26.519-28.994-59.757-27.58-92.641 1.414-32.884 14.497-65.061 35.359-88.752-1.061 1.061 1.414-2.475 3.536-4.596 0 0.707-0.354 1.768 2.122-0.707 2.122-2.475-0.707-0.707 0.353-2.122 21.923-24.044 60.111-43.492 99.36-44.199 1.414-1.061 3.889-2.475 6.718-1.768 0 0.354-1.768 0.354-1.768 0.354 3.889-0.354 7.425-0.354 9.193 0.353 0.354-0.354-1.414-0.707 0-0.707 2.475 0.707 3.182 0 4.597 0.707-1.061 0-2.122 0-2.829 0.354 8.84 0 14.497 2.122 23.337 2.829-4.597-1.061-5.657-1.061-9.193-2.122 3.889 0.707 5.657 1.414 7.425 1.061-0.707 0-0.354-1.061 0.354-0.707 7.072 1.768 7.779 2.475 15.204 4.95 0.707-0.707-3.182-1.061-4.243-2.122 7.072 2.475 13.436 4.243 17.68 7.072-1.414-1.061-5.657-2.475-8.84-3.889-0.354 0.354 1.061 0.707 1.414 1.414-3.536-1.768-8.486-3.536-13.436-4.243 4.243 1.061 7.072 2.475 8.84 3.182-3.889-0.707-8.84-3.182-14.498-4.243 9.193 2.829 26.519 9.193 37.127 14.851-3.889-2.475-8.486-4.243-10.961-5.657 2.122 0.354 4.597 1.768 4.597 1.06 2.475 1.061 5.657 3.536 7.425 3.89-3.182-2.122-9.547-5.304-11.668-6.365 26.519 12.022 50.21 32.177 65.414 57.989 1.414 2.475 3.536 8.133 5.304 8.84-0.354-1.768-1.768-2.829-3.182-5.657 0.707 0 0.707-1.061 0-2.122-1.414-1.768 0 1.414-1.415-0.354-6.365-11.669-14.144-21.923-26.165-33.237 6.718 6.365 1.768 1.768 0.353-0.354 9.193 8.133 19.801 21.923 24.398 28.995-0.707-1.061-1.061-1.768-0.707-1.768 8.486 14.497 13.79 27.58 19.094 46.32 0.354 0.354 0-1.414 0.707-0.353 3.536 14.851 4.597 27.227 4.243 38.541 2.829-19.094-3.536-48.796-14.851-72.133-1.414-2.829-1.414-0.707-2.829-3.889 0-1.061-1.061-3.182-1.768-4.597-14.144-23.337-31.47-39.956-51.978-53.038 1.414 0.707 4.243 2.829 4.244 2.475-38.188-25.105-82.387-28.641-118.807-20.862-2.475 1.061-3.536 2.122-6.365 3.536 5.304-1.768 8.486-2.122 13.437-3.183 1.061-1.061-4.597 0.354-2.122-0.707 0.354 0.354 4.95-0.707 6.011-0.353 0 0.354-1.414 0.707-1.768 1.06 11.669-2.475 23.691-2.829 33.945-2.121-6.011 0.354-16.972-0.707-20.508 1.061 3.536-0.354 8.486-0.707 11.668-0.354-4.243 0-12.022 0.354-15.558 0.707-0.354-0.354 5.657-1.061 1.768-1.06-1.768 0.354-4.597 0.354-5.657 1.414-30.409 2.829-60.111 18.74-80.973 37.481-4.243 3.536-9.193 7.425-12.375 11.314-7.779 8.84-12.729 17.68-18.387 25.459 3.536-7.425 11.315-18.74 20.508-28.287 9.193-9.547 19.094-17.68 24.398-21.923 0 1.414 8.486-5.304 11.669-7.425-2.122 1.768 1.414-0.707 2.121-0.354 11.315-6.718 20.508-9.193 30.763-13.083-2.475 0.707-4.597 1.414-4.951 1.061 2.475-0.707 3.889-1.414 3.536-1.768-9.901 2.829-25.459 9.547-37.834 16.972 22.276-15.204 50.564-24.398 78.497-24.751 27.934-0.707 55.16 6.365 76.729 17.68 14.497 6.365 28.287 18.033 39.249 29.348 3.182 2.829 0.707-0.707 5.304 4.243-1.414-0.707-2.475-1.414-0.707 0.707 2.829 3.182-0.707-2.475 3.889 3.182-0.354 0-1.768-1.768-1.768-1.061 12.376 10.961 21.923 30.762 27.58 43.846-1.414-5.304-4.95-12.729-7.779-18.033 8.486 15.558 11.315 24.751 14.851 38.541 1.414 1.061-0.707-4.95 0.707-2.121 0.354 2.122 0.707 8.84 2.122 9.9-1.061-6.718-2.829-14.851-4.243-16.265 1.061 0.707-1.768-8.133-3.536-10.254-0.707-5.657-5.657-15.558-9.901-22.984-15.204-29.702-42.431-54.099-72.839-67.536 0-0.707-1.768-1.414-2.476-2.121-30.055-12.729-66.122-16.265-100.773-8.133-35.006 8.486-67.889 28.641-91.227 57.636 1.061-3.536 9.901-10.254 10.255-13.083-10.254 10.961-21.215 25.459-28.641 41.016-7.779 15.558-12.022 31.47-13.79 43.138" fill="#ffffff" fill-rule="nonzero" stroke="none" stroke-width="1" stroke-linecap="butt" stroke-linejoin="miter" stroke-miterlimit="10" stroke-dasharray="" stroke-dashoffset="0" font-family="none" font-weight="none" font-size="none" text-anchor="none" style="mix-blend-mode: normal" data-fill-palette-color="tertiary"></path></g><g transform="matrix(1,0,0,1,48,99.31409092861269)"><svg viewBox="0 0 224 161.37181814277463" height="161.37181814277463" width="224"><g><svg viewBox="0 0 224 161.37181814277463" height="161.37181814277463" width="224"><g><svg viewBox="0 0 224 161.37181814277463" height="161.37181814277463" width="224"><g transform="matrix(1,0,0,1,0,97.06304271695333)"><svg viewBox="0 0 224 64.3087754258213" height="64.3087754258213" width="224"><g id="textblocktransform"><svg viewBox="0 0 224 64.3087754258213" height="64.3087754258213" width="224" id="textblock"><g><svg viewBox="0 0 224 34.68508056078677" height="34.68508056078677" width="224"><g transform="matrix(1,0,0,1,0,0)"><svg width="224" viewBox="4.25 -36.5 238.92999267578125 37" height="34.68508056078677" data-palette-color="#3d3839"><path d="M28.55 0L4.25 0 4.25-35.5 8.75-35.5 8.75-4 28.55-4 28.55 0ZM30.7-7.55L30.7-7.55Q30.7-10.05 32.12-11.88 33.55-13.7 36.05-14.7 38.55-15.7 41.85-15.7L41.85-15.7Q43.6-15.7 45.55-15.43 47.5-15.15 49-14.6L49-14.6 49-16.5Q49-19.5 47.2-21.23 45.4-22.95 42.1-22.95L42.1-22.95Q39.95-22.95 37.97-22.18 36-21.4 33.8-19.95L33.8-19.95 32.2-23.05Q34.75-24.8 37.3-25.68 39.85-26.55 42.6-26.55L42.6-26.55Q47.6-26.55 50.5-23.78 53.4-21 53.4-16.05L53.4-16.05 53.4-5Q53.4-4.2 53.72-3.83 54.05-3.45 54.8-3.4L54.8-3.4 54.8 0Q54.15 0.1 53.67 0.15 53.2 0.2 52.9 0.2L52.9 0.2Q51.35 0.2 50.57-0.65 49.8-1.5 49.7-2.45L49.7-2.45 49.6-4.1Q47.9-1.9 45.15-0.7 42.4 0.5 39.7 0.5L39.7 0.5Q37.1 0.5 35.05-0.58 33-1.65 31.85-3.48 30.7-5.3 30.7-7.55ZM47.7-5.7L47.7-5.7Q48.3-6.4 48.65-7.13 49-7.85 49-8.35L49-8.35 49-11.6Q47.45-12.2 45.75-12.53 44.05-12.85 42.4-12.85L42.4-12.85Q39.05-12.85 36.97-11.53 34.9-10.2 34.9-7.9L34.9-7.9Q34.9-6.65 35.57-5.48 36.25-4.3 37.57-3.55 38.9-2.8 40.85-2.8L40.85-2.8Q42.9-2.8 44.75-3.63 46.6-4.45 47.7-5.7ZM78.29 0L73.79 0 73.79-35.5 88.59-35.5Q90.94-35.5 92.89-34.52 94.84-33.55 96.29-31.93 97.74-30.3 98.54-28.28 99.34-26.25 99.34-24.15L99.34-24.15Q99.34-21.25 98.04-18.63 96.74-16 94.39-14.38 92.04-12.75 88.89-12.75L88.89-12.75 78.29-12.75 78.29 0ZM78.29-31.5L78.29-16.75 88.64-16.75Q90.49-16.75 91.87-17.75 93.24-18.75 94.02-20.45 94.79-22.15 94.79-24.15L94.79-24.15Q94.79-26.25 93.89-27.93 92.99-29.6 91.54-30.55 90.09-31.5 88.34-31.5L88.34-31.5 78.29-31.5ZM101.89-7.55L101.89-7.55Q101.89-10.05 103.32-11.88 104.74-13.7 107.24-14.7 109.74-15.7 113.04-15.7L113.04-15.7Q114.79-15.7 116.74-15.43 118.69-15.15 120.19-14.6L120.19-14.6 120.19-16.5Q120.19-19.5 118.39-21.23 116.59-22.95 113.29-22.95L113.29-22.95Q111.14-22.95 109.17-22.18 107.19-21.4 104.99-19.95L104.99-19.95 103.39-23.05Q105.94-24.8 108.49-25.68 111.04-26.55 113.79-26.55L113.79-26.55Q118.79-26.55 121.69-23.78 124.59-21 124.59-16.05L124.59-16.05 124.59-5Q124.59-4.2 124.92-3.83 125.24-3.45 125.99-3.4L125.99-3.4 125.99 0Q125.34 0.1 124.87 0.15 124.39 0.2 124.09 0.2L124.09 0.2Q122.54 0.2 121.77-0.65 120.99-1.5 120.89-2.45L120.89-2.45 120.79-4.1Q119.09-1.9 116.34-0.7 113.59 0.5 110.89 0.5L110.89 0.5Q108.29 0.5 106.24-0.58 104.19-1.65 103.04-3.48 101.89-5.3 101.89-7.55ZM118.89-5.7L118.89-5.7Q119.49-6.4 119.84-7.13 120.19-7.85 120.19-8.35L120.19-8.35 120.19-11.6Q118.64-12.2 116.94-12.53 115.24-12.85 113.59-12.85L113.59-12.85Q110.24-12.85 108.17-11.53 106.09-10.2 106.09-7.9L106.09-7.9Q106.09-6.65 106.77-5.48 107.44-4.3 108.77-3.55 110.09-2.8 112.04-2.8L112.04-2.8Q114.09-2.8 115.94-3.63 117.79-4.45 118.89-5.7ZM136.04 0L131.64 0 131.64-26.1 136.04-26.1 136.04 0ZM136.04-31L131.64-31 131.64-36.5 136.04-36.5 136.04-31ZM143.24-5.15L143.24-36.5 147.64-36.5 147.64-6.75Q147.64-4.6 148.24-4.1 148.84-3.6 149.69-3.6L149.69-3.6Q150.74-3.6 151.69-3.83 152.64-4.05 153.29-4.3L153.29-4.3 153.99-0.7Q152.89-0.25 151.39 0.05 149.89 0.35 148.74 0.35L148.74 0.35Q146.19 0.35 144.71-1.1 143.24-2.55 143.24-5.15L143.24-5.15ZM157.53-5.15L157.53-36.5 161.93-36.5 161.93-6.75Q161.93-4.6 162.53-4.1 163.13-3.6 163.98-3.6L163.98-3.6Q165.03-3.6 165.98-3.83 166.93-4.05 167.58-4.3L167.58-4.3 168.28-0.7Q167.18-0.25 165.68 0.05 164.18 0.35 163.03 0.35L163.03 0.35Q160.48 0.35 159.01-1.1 157.53-2.55 157.53-5.15L157.53-5.15ZM183.13 0.5L183.13 0.5Q180.18 0.5 177.78-0.58 175.38-1.65 173.63-3.53 171.88-5.4 170.93-7.85 169.98-10.3 169.98-13L169.98-13Q169.98-15.75 170.93-18.2 171.88-20.65 173.63-22.53 175.38-24.4 177.81-25.48 180.23-26.55 183.18-26.55L183.18-26.55Q186.08-26.55 188.48-25.48 190.88-24.4 192.66-22.53 194.43-20.65 195.38-18.2 196.33-15.75 196.33-13L196.33-13Q196.33-10.3 195.38-7.85 194.43-5.4 192.68-3.53 190.93-1.65 188.51-0.58 186.08 0.5 183.13 0.5ZM174.48-12.95L174.48-12.95Q174.48-10.25 175.66-8.05 176.83-5.85 178.78-4.58 180.73-3.3 183.13-3.3L183.13-3.3Q185.53-3.3 187.51-4.6 189.48-5.9 190.66-8.13 191.83-10.35 191.83-13.05L191.83-13.05Q191.83-15.75 190.66-17.95 189.48-20.15 187.51-21.45 185.53-22.75 183.13-22.75L183.13-22.75Q180.73-22.75 178.78-21.43 176.83-20.1 175.66-17.9 174.48-15.7 174.48-12.95ZM213.73-4.8L214.78-1.3Q214.23-1.05 213.28-0.65 212.33-0.25 211.08 0.05 209.83 0.35 208.43 0.35L208.43 0.35Q206.83 0.35 205.48-0.23 204.13-0.8 203.33-2.02 202.53-3.25 202.53-5.1L202.53-5.1 202.53-22.65 198.98-22.65 198.98-26.1 202.53-26.1 202.53-34.8 206.93-34.8 206.93-26.1 212.78-26.1 212.78-22.65 206.93-22.65 206.93-6.45Q207.03-5.05 207.88-4.38 208.73-3.7 209.88-3.7L209.88-3.7Q211.18-3.7 212.28-4.15 213.38-4.6 213.73-4.8L213.73-4.8ZM230.08 0.5L230.08 0.5Q227.13 0.5 224.7-0.58 222.28-1.65 220.5-3.53 218.73-5.4 217.75-7.85 216.78-10.3 216.78-13.05L216.78-13.05Q216.78-16.75 218.48-19.8 220.18-22.85 223.2-24.7 226.23-26.55 230.13-26.55L230.13-26.55Q234.08-26.55 237-24.68 239.93-22.8 241.55-19.78 243.18-16.75 243.18-13.25L243.18-13.25Q243.18-12.75 243.15-12.28 243.13-11.8 243.08-11.55L243.08-11.55 221.43-11.55Q221.63-9 222.85-7.03 224.08-5.05 226.03-3.93 227.98-2.8 230.23-2.8L230.23-2.8Q232.63-2.8 234.75-4 236.88-5.2 237.68-7.15L237.68-7.15 241.48-6.1Q240.63-4.2 238.95-2.7 237.28-1.2 235-0.35 232.73 0.5 230.08 0.5ZM221.28-14.6L221.28-14.6 239.08-14.6Q238.88-17.15 237.63-19.1 236.38-21.05 234.43-22.15 232.48-23.25 230.13-23.25L230.13-23.25Q227.83-23.25 225.88-22.15 223.93-21.05 222.7-19.1 221.48-17.15 221.28-14.6Z" opacity="1" transform="matrix(1,0,0,1,0,0)" fill="#ffffff" class="undefined-text-0" data-fill-palette-color="primary" id="text-0"></path></svg></g></svg></g><g transform="matrix(1,0,0,1,0,42.87339563925507)"><svg viewBox="0 0 224 21.435379786566227" height="21.435379786566227" width="224"><g transform="matrix(1,0,0,1,0,0)"><svg width="224" viewBox="2.299999952316284 -29.149999618530273 385.08001708984375 36.849998474121094" height="21.435379786566227" data-palette-color="#ffc604"><path d="M13.95-3.1L20.3-3.1 20.3 0 3.35 0 3.35-3.1 10.45-3.1 10.45-24.5Q10.05-23.9 9.1-23.2 8.15-22.5 6.93-21.9 5.7-21.3 4.5-20.9 3.3-20.5 2.3-20.5L2.3-20.5 2.3-23.8Q3.45-23.8 4.8-24.45 6.15-25.1 7.4-25.95 8.65-26.8 9.5-27.55 10.35-28.3 10.45-28.55L10.45-28.55 13.95-28.55 13.95-3.1ZM117.99-16.35L117.99-16.35Q117.99-13 119.62-10.28 121.24-7.55 124.04-5.95 126.84-4.35 130.19-4.35L130.19-4.35Q132.49-4.35 134.44-5.15 136.39-5.95 137.89-7.43 139.39-8.9 140.09-10.8L140.09-10.8Q140.04-5.9 138.82-2.45 137.59 1 135.42 2.85 133.24 4.7 130.24 4.7L130.24 4.7Q127.49 4.7 125.19 3.15 122.89 1.6 121.84-0.9L121.84-0.9 119.64 1.1Q121.09 4.15 123.92 5.93 126.74 7.7 130.24 7.7L130.24 7.7Q134.14 7.7 137.09 5.35 140.04 3 141.69-1.73 143.34-6.45 143.34-13.7L143.34-13.7Q143.34-18.35 141.72-21.68 140.09-25 137.22-26.78 134.34-28.55 130.59-28.55L130.59-28.55Q127.09-28.55 124.22-26.9 121.34-25.25 119.67-22.5 117.99-19.75 117.99-16.35ZM130.54-25.55L130.54-25.55Q133.04-25.55 135.17-24.3 137.29-23.05 138.54-20.95 139.79-18.85 139.79-16.35L139.79-16.35Q139.79-13.85 138.54-11.75 137.29-9.65 135.19-8.4 133.09-7.15 130.54-7.15L130.54-7.15Q128.04-7.15 125.92-8.4 123.79-9.65 122.52-11.75 121.24-13.85 121.24-16.35L121.24-16.35Q121.24-18.9 122.52-20.98 123.79-23.05 125.89-24.3 127.99-25.55 130.54-25.55ZM263.94 0L242.49 0Q242.49-1.7 242.79-3.43 243.09-5.15 243.94-6.85 244.79-8.55 246.44-10.13 248.09-11.7 250.79-13.1L250.79-13.1Q252.24-13.85 253.79-14.58 255.34-15.3 256.71-16.18 258.09-17.05 258.91-18.18 259.74-19.3 259.74-20.85L259.74-20.85Q259.74-22.1 259.01-23.3 258.29-24.5 256.81-25.25 255.34-26 253.14-26L253.14-26Q251.54-26 250.24-25.55 248.94-25.1 247.94-24.43 246.94-23.75 246.24-23.08 245.54-22.4 245.09-21.95L245.09-21.95 242.94-24.3Q243.19-24.6 244.06-25.38 244.94-26.15 246.31-27 247.69-27.85 249.56-28.45 251.44-29.05 253.69-29.05L253.69-29.05Q256.74-29.05 258.91-27.98 261.09-26.9 262.24-25.1 263.39-23.3 263.39-21.2L263.39-21.2Q263.39-19.15 262.51-17.68 261.64-16.2 260.26-15.13 258.89-14.05 257.41-13.28 255.94-12.5 254.74-11.95L254.74-11.95Q252.39-10.85 250.79-9.75 249.19-8.65 248.24-7.53 247.29-6.4 246.76-5.33 246.24-4.25 246.04-3.1L246.04-3.1 263.94-3.1 263.94 0ZM365.53 6.35L381.98-26 362.83-26 362.83-29.15 387.38-29.15 369.43 6.35 365.53 6.35Z" opacity="1" transform="matrix(1,0,0,1,0,0)" fill="#ffffff" class="undefined-text-1" data-fill-palette-color="secondary" id="text-1"></path></svg></g></svg></g></svg></g></svg></g><g transform="matrix(1,0,0,1,43.27021227447406,0)"><svg viewBox="0 0 137.45957545105188 88.87472763848504" height="88.87472763848504" width="137.45957545105188"><g><svg xmlns="http://www.w3.org/2000/svg" xmlns:xlink="http://www.w3.org/1999/xlink" version="1.1" x="0" y="0" viewBox="12.925000190734863 21.37615966796875 80.5949935913086 52.10883331298828" enable-background="new 0 0 100 100" xml:space="preserve" height="88.87472763848504" width="137.45957545105188" class="icon-icon-0" data-fill-palette-color="accent" id="icon-0"><path d="M50.988 36.725c8.172 0 15.153 6.097 16.239 14.181 0.146 1.091 1.144 1.849 2.24 1.709 1.09-0.146 1.855-1.149 1.709-2.24C69.826 40.322 61.147 32.74 50.988 32.74c-11.233 0-20.372 9.139-20.372 20.372 0 3.956 1.136 7.793 3.287 11.097 0.382 0.586 1.02 0.905 1.671 0.905 0.373 0 0.749-0.104 1.085-0.322 0.922-0.601 1.183-1.835 0.583-2.757-1.728-2.654-2.641-5.74-2.641-8.923C34.601 44.076 41.952 36.725 50.988 36.725z" fill="#ffffff" data-fill-palette-color="accent"></path><path d="M68.745 58.271c-1.017-0.419-2.181 0.065-2.601 1.083-2.541 6.163-8.49 10.146-15.156 10.146-1.479 0-2.941-0.195-4.348-0.581-1.061-0.295-2.157 0.333-2.448 1.395-0.291 1.061 0.333 2.156 1.395 2.447 1.75 0.48 3.568 0.724 5.402 0.724 8.286 0 15.682-4.95 18.84-12.612C70.247 59.854 69.763 58.689 68.745 58.271z" fill="#ffffff" data-fill-palette-color="accent"></path><path d="M51.487 56.417h28.274c0.553 0 1-0.447 1-1s-0.447-1-1-1H51.487c-0.552 0-1 0.447-1 1S50.935 56.417 51.487 56.417z" fill="#ffffff" data-fill-palette-color="accent"></path><path d="M62.618 61.393c0-0.553-0.447-1-1-1h-18.37c-0.552 0-1 0.447-1 1s0.448 1 1 1h18.37C62.171 62.393 62.618 61.945 62.618 61.393z" fill="#ffffff" data-fill-palette-color="accent"></path><path d="M41.369 67.033H29.744c-0.552 0-1 0.447-1 1s0.448 1 1 1h11.625c0.552 0 1-0.447 1-1S41.921 67.033 41.369 67.033z" fill="#ffffff" data-fill-palette-color="accent"></path><path d="M27.878 55.417c0-0.553-0.448-1-1-1H13.925c-0.552 0-1 0.447-1 1s0.448 1 1 1h12.953C27.43 56.417 27.878 55.97 27.878 55.417z" fill="#ffffff" data-fill-palette-color="accent"></path><path d="M27.984 60.725H20.4c-0.552 0-1 0.447-1 1s0.448 1 1 1h7.584c0.552 0 1-0.447 1-1S28.537 60.725 27.984 60.725z" fill="#ffffff" data-fill-palette-color="accent"></path><path d="M83.611 67.033H70.659c-0.553 0-1 0.447-1 1s0.447 1 1 1h12.952c0.553 0 1-0.447 1-1S84.164 67.033 83.611 67.033z" fill="#ffffff" data-fill-palette-color="accent"></path><path d="M87.102 62.827H74.148c-0.553 0-1 0.447-1 1s0.447 1 1 1h12.953c0.553 0 1-0.447 1-1S87.654 62.827 87.102 62.827z" fill="#ffffff" data-fill-palette-color="accent"></path><path d="M92.52 58.623H74.148c-0.553 0-1 0.447-1 1s0.447 1 1 1H92.52c0.553 0 1-0.447 1-1S93.072 58.623 92.52 58.623z" fill="#ffffff" data-fill-palette-color="accent"></path><path d="M51.368 29.842c0.033 0.002 0.065 0.003 0.098 0.003 0.689 0 1.272-0.533 1.323-1.231l0.425-5.812c0.054-0.731-0.496-1.368-1.228-1.421-0.751-0.063-1.368 0.497-1.421 1.228l-0.425 5.812C50.087 29.152 50.637 29.789 51.368 29.842z" fill="#ffffff" data-fill-palette-color="accent"></path><path d="M20.189 42.814l5.374 2.524c0.182 0.085 0.375 0.126 0.563 0.126 0.499 0 0.977-0.283 1.203-0.764 0.312-0.664 0.026-1.455-0.638-1.767l-5.374-2.524c-0.662-0.311-1.455-0.025-1.767 0.638C19.24 41.711 19.525 42.502 20.189 42.814z" fill="#ffffff" data-fill-palette-color="accent"></path><path d="M65.312 35.106c0.304 0 0.609-0.104 0.859-0.316l5.352-4.551c0.559-0.475 0.627-1.313 0.151-1.872-0.474-0.558-1.313-0.625-1.872-0.151l-5.352 4.551c-0.559 0.475-0.627 1.313-0.151 1.872C64.562 34.948 64.936 35.106 65.312 35.106z" fill="#ffffff" data-fill-palette-color="accent"></path><path d="M71.851 43.297c0.186 0.557 0.704 0.91 1.261 0.91 0.139 0 0.279-0.022 0.419-0.068l6.666-2.214c0.695-0.231 1.072-0.983 0.842-1.679-0.231-0.696-0.979-1.074-1.68-0.842l-6.666 2.214C71.997 41.85 71.62 42.602 71.851 43.297z" fill="#ffffff" data-fill-palette-color="accent"></path><path d="M34.842 33.687c0.261 0.275 0.612 0.414 0.963 0.414 0.329 0 0.658-0.121 0.915-0.365 0.532-0.505 0.554-1.346 0.048-1.877l-4.837-5.093c-0.506-0.533-1.347-0.553-1.877-0.048-0.532 0.505-0.554 1.346-0.048 1.877L34.842 33.687z" fill="#ffffff" data-fill-palette-color="accent"></path><path d="M39.942 47.537c0.217 0.134 0.458 0.198 0.695 0.198 0.446 0 0.881-0.224 1.132-0.631 1.738-2.819 4.98-4.363 8.263-3.93 0.723 0.094 1.394-0.417 1.489-1.144 0.096-0.727-0.416-1.394-1.144-1.49-4.317-0.566-8.584 1.462-10.87 5.17C39.123 46.334 39.317 47.152 39.942 47.537z" fill="#ffffff" data-fill-palette-color="accent"></path></svg></g></svg></g><g></g></svg></g></svg></g></svg></g></svg></g><defs><mask id="73d377be-a247-44e1-983c-cf1312690d25"><rect width="640" height="400" fill="white"></rect><rect width="348.05760000000004" height="131.32699928534433" fill="black" y="57.93650035732783" x="23.731199999999973" id="transform-me"></rect></mask><mask id="394e46de-5f2c-4e02-949e-c89a554a8e57"><rect width="640" height="400" fill="white"></rect><rect width="348.05760000000004" height="131.32699928534433" fill="black" y="57.93650035732783" x="23.731199999999973" id="transform-me"></rect></mask></defs></svg><rect width="320" height="360" fill="none" stroke="none" visibility="hidden"></rect></g></svg></g></svg>