<?xml version="1.0" standalone="no"?>
<!DOCTYPE svg PUBLIC "-//W3C//DTD SVG 20010904//EN"
 "http://www.w3.org/TR/2001/REC-SVG-20010904/DTD/svg10.dtd">
<svg version="1.0" xmlns="http://www.w3.org/2000/svg"
 width="1125.000000pt" height="1125.000000pt" viewBox="0 0 1125.000000 1125.000000"
 preserveAspectRatio="xMidYMid meet">
<metadata>
Created by potrace 1.14, written by Peter Selinger 2001-2017
</metadata>
<g transform="translate(0.000000,1125.000000) scale(0.100000,-0.100000)"
fill="#000000" stroke="none">
<path d="M5439 10695 c-2 -2 -47 -6 -99 -10 -52 -3 -108 -8 -125 -10 -16 -3
-70 -9 -120 -15 -49 -6 -101 -13 -115 -15 -14 -2 -43 -6 -65 -10 -22 -3 -116
-21 -210 -40 -795 -162 -1615 -558 -2260 -1093 -219 -181 -448 -405 -631 -617
-29 -33 -62 -71 -74 -85 l-22 -25 20 35 c12 19 67 84 124 144 113 120 174 194
166 201 -11 12 -254 -273 -401 -470 -406 -544 -680 -1118 -842 -1765 -32 -130
-37 -154 -51 -265 -3 -27 -21 -129 -41 -225 -44 -221 -41 -202 -47 -290 -3
-41 -10 -99 -16 -129 -13 -68 -12 -110 1 -63 16 55 30 26 24 -51 -7 -96 -15
-166 -23 -202 -19 -90 1 -411 30 -482 6 -15 10 -32 9 -37 -1 -5 -2 -50 -1
-100 0 -85 4 -134 15 -196 3 -14 7 -50 11 -80 7 -66 14 -78 14 -25 0 53 7 41
14 -25 4 -37 3 -48 -3 -35 -16 33 -12 8 15 -111 54 -242 210 -747 224 -724 5
9 9 9 14 1 4 -6 5 -11 2 -11 -9 0 31 -105 72 -186 23 -45 50 -108 61 -140 11
-33 43 -99 72 -149 28 -49 72 -130 97 -180 25 -49 62 -112 82 -140 20 -27 58
-88 85 -135 58 -103 154 -244 248 -365 39 -49 73 -92 77 -95 3 -3 16 -18 29
-35 23 -31 61 -75 190 -224 40 -48 146 -158 235 -246 173 -171 171 -170 316
-289 52 -43 105 -86 116 -96 92 -77 565 -390 589 -390 3 0 23 -11 45 -25 59
-37 318 -165 450 -222 168 -73 389 -154 545 -200 146 -43 483 -120 600 -137
22 -4 54 -9 70 -11 17 -3 44 -7 60 -10 17 -2 55 -7 85 -10 30 -3 69 -8 86 -10
31 -4 134 -12 264 -20 96 -6 412 -6 510 0 116 7 232 16 265 20 17 2 53 7 80
10 95 11 260 35 290 41 11 3 56 12 100 20 281 55 587 145 860 254 162 65 250
106 299 139 23 16 80 44 126 62 75 30 132 58 275 139 22 12 106 68 188 124 81
55 202 138 268 183 158 108 462 383 496 448 9 16 59 72 112 125 116 115 238
266 337 417 41 62 91 129 113 150 21 21 47 52 57 68 10 17 40 60 66 96 109
152 197 309 142 254 -11 -10 -20 -13 -26 -7 -6 6 11 52 45 123 214 444 378
987 442 1464 3 22 7 54 10 70 22 142 27 673 7 770 -9 48 -10 46 -11 -50 -4
-198 -18 -427 -36 -560 -3 -22 -7 -62 -10 -90 -3 -27 -8 -62 -11 -77 -3 -15
-7 -39 -9 -55 -2 -15 -11 -68 -20 -118 -10 -49 -19 -101 -21 -115 -3 -14 -7
-33 -10 -42 -5 -18 -12 -48 -20 -88 -17 -88 -119 -431 -154 -520 -101 -254
-185 -429 -282 -583 -28 -45 -67 -111 -86 -147 -107 -203 -231 -376 -441 -619
-108 -125 -522 -532 -614 -604 -23 -17 -47 -38 -55 -44 -80 -75 -345 -250
-575 -381 -153 -87 -486 -257 -597 -304 -19 -9 -66 -29 -105 -46 -241 -106
-626 -219 -875 -255 -137 -21 -179 -25 -284 -31 -93 -5 -63 2 75 18 30 3 91
13 135 21 43 9 95 18 114 22 19 3 40 6 45 7 695 146 1373 452 1905 859 198
152 369 309 535 491 100 109 108 127 18 40 -433 -420 -643 -581 -1048 -799
-49 -26 -107 -63 -128 -81 -51 -42 -276 -154 -372 -184 -22 -7 -53 -18 -70
-25 -42 -18 -128 -46 -131 -42 -2 2 43 22 99 46 138 58 336 156 367 182 22 17
19 17 -25 -4 -27 -14 -78 -36 -112 -51 -35 -14 -86 -37 -115 -50 -179 -81
-637 -233 -816 -271 -9 -2 -46 -10 -82 -19 -96 -23 -326 -63 -400 -71 -36 -4
-78 -9 -95 -11 -141 -18 -474 -24 -660 -11 -89 6 -156 15 -161 20 -1 1 104 2
234 3 206 1 451 9 547 18 81 8 173 18 195 21 14 2 61 9 105 15 44 7 108 23
142 35 34 13 74 26 90 29 56 10 88 17 105 22 9 3 25 7 35 9 175 39 502 148
733 245 115 48 358 165 455 220 74 41 229 133 240 142 5 4 48 33 95 64 165
109 411 304 475 376 l30 33 -40 -36 c-22 -19 -76 -64 -120 -98 -44 -34 -88
-69 -98 -77 -18 -15 -60 -44 -223 -159 -169 -119 -435 -271 -531 -305 -37 -13
-32 -10 177 115 96 57 180 107 185 112 6 4 30 21 55 37 180 116 351 247 445
340 44 43 71 74 60 68 -11 -6 -31 -22 -45 -37 -63 -69 -416 -323 -555 -400
-11 -6 -56 -32 -100 -57 -102 -58 -330 -175 -415 -212 -36 -16 -93 -42 -127
-58 -34 -15 -65 -28 -70 -28 -4 0 -20 -6 -34 -14 -37 -19 -77 -27 -81 -16 -4
12 -109 -23 -145 -49 -23 -16 -162 -59 -248 -77 -11 -2 -76 -17 -145 -33 -69
-17 -141 -33 -160 -36 -19 -3 -54 -10 -77 -16 -56 -12 -272 -46 -348 -55 -33
-4 -73 -9 -90 -11 -16 -2 -133 -6 -260 -8 -225 -5 -243 -3 -394 29 -13 3 -71
8 -130 11 -309 16 -292 14 -497 61 -170 39 -343 92 -544 166 -150 56 -551 228
-675 290 -102 51 -253 150 -369 241 -50 40 -118 92 -151 117 -418 313 -759
643 -1013 980 -212 281 -414 646 -558 1007 -88 222 -206 615 -239 798 -21 118
-55 329 -60 375 -4 30 -8 69 -10 85 -34 280 -24 818 20 1085 2 14 9 57 15 95
6 39 13 84 16 100 13 81 81 356 120 486 169 570 457 1113 827 1564 46 55 90
112 99 126 26 41 98 121 98 110 0 -19 18 -12 55 20 36 32 44 54 23 62 -16 6
221 243 347 348 444 371 963 655 1540 842 61 20 130 41 155 48 25 7 50 14 55
15 13 4 29 7 155 38 58 14 121 27 140 31 19 3 71 12 115 20 70 12 129 20 298
40 20 2 95 7 165 10 114 6 133 10 187 36 59 30 62 30 175 24 63 -3 137 -8 163
-11 32 -2 46 0 42 6 -4 7 2 9 17 5 12 -3 40 -7 60 -8 23 -1 38 -7 38 -14 0 -9
17 -13 48 -14 26 0 56 -2 67 -4 11 -1 45 -6 75 -9 62 -7 69 -8 269 -42 162
-27 184 -29 126 -9 l-40 14 37 -4 c31 -4 36 -2 31 11 -7 20 11 18 129 -15 79
-22 281 -95 240 -87 -40 8 -15 -6 71 -40 114 -45 82 -42 -65 7 -172 57 -212
69 -202 60 5 -4 79 -32 164 -61 141 -48 437 -160 514 -194 17 -8 82 -37 145
-65 63 -28 116 -50 118 -48 2 2 -40 23 -92 47 -52 24 -94 44 -92 46 2 2 25 -4
52 -12 28 -8 60 -13 72 -11 14 3 20 0 16 -6 -4 -6 0 -8 11 -4 9 4 15 3 12 -2
-3 -5 1 -12 10 -15 8 -3 12 -2 9 4 -3 5 1 7 9 4 9 -3 14 -11 13 -16 -1 -6 4
-13 12 -16 9 -3 11 0 6 9 -4 8 3 2 16 -13 22 -24 77 -58 95 -58 4 0 -1 7 -12
16 -23 19 75 -34 166 -89 219 -133 435 -291 645 -471 87 -75 371 -359 446
-446 120 -141 301 -379 354 -468 6 -9 33 -55 61 -102 29 -47 73 -127 98 -179
51 -102 82 -151 97 -151 11 0 -17 56 -60 119 -22 33 -27 48 -19 58 5 7 8 20 4
28 -3 8 -3 15 -1 15 4 0 70 -135 142 -290 92 -199 238 -604 303 -841 16 -57
28 -85 36 -82 15 6 17 0 53 -182 48 -249 59 -325 77 -520 3 -38 7 -83 9 -100
2 -16 4 -81 5 -142 1 -62 6 -113 11 -113 11 0 14 261 4 375 -2 22 -6 71 -9
109 -3 38 -8 80 -10 95 -3 14 -7 49 -11 76 -3 28 -8 57 -10 65 -2 8 -6 31 -9
50 -16 108 -88 423 -117 515 -5 17 -23 75 -40 130 -66 214 -147 427 -225 594
-24 51 -44 96 -44 100 0 4 -18 26 -40 50 -22 24 -44 60 -51 84 -6 23 -26 71
-44 108 -67 132 -344 524 -483 683 -163 186 -344 373 -464 478 -34 29 -70 61
-82 72 -66 58 -269 216 -381 296 -71 51 -131 97 -133 102 -2 4 -8 8 -14 8 -6
0 -25 10 -42 23 -86 65 -414 238 -606 320 -307 130 -756 267 -997 303 -21 3
-45 7 -53 9 -23 7 -207 33 -275 40 -33 4 -70 8 -82 10 -121 20 -733 28 -913
12 -148 -14 -174 -16 -210 -21 -19 -3 -84 -12 -145 -20 -229 -31 -344 -60
-423 -106 -40 -23 -71 -44 -70 -46 2 -2 37 6 78 16 67 18 183 43 250 54 14 3
27 5 30 6 3 2 8 2 13 1 4 0 7 3 7 9 0 6 -8 11 -17 11 -29 2 59 18 101 18 38 1
39 0 20 -14 -21 -17 -26 -17 62 -1 12 2 45 7 75 10 l54 5 -40 -13 c-22 -7 -67
-16 -100 -20 -86 -9 -117 -14 -182 -25 -65 -12 -68 -13 -173 -36 -41 -9 -83
-18 -92 -20 -193 -41 -565 -176 -815 -296 -57 -27 -104 -49 -106 -49 -10 0
-318 -176 -405 -232 -84 -53 -195 -127 -227 -151 -252 -188 -288 -217 -390
-307 -22 -19 -65 -55 -95 -80 -312 -259 -420 -382 -730 -840 -162 -240 -193
-281 -140 -185 18 33 38 69 44 80 26 47 155 238 224 330 126 169 231 287 438
499 51 51 223 210 338 311 156 138 300 251 326 258 26 7 111 61 246 158 44 31
102 64 129 75 28 10 73 31 100 46 156 88 349 173 629 275 159 58 203 77 151
68 -18 -3 -9 3 23 15 62 26 70 45 10 26 -79 -24 -173 -57 -203 -70 -16 -7 -63
-26 -102 -41 -40 -15 -73 -31 -73 -37 0 -5 10 -7 23 -3 12 3 4 -3 -17 -15 -22
-11 -42 -17 -45 -13 -16 22 -34 15 -296 -113 -93 -45 -208 -103 -255 -128
-129 -70 -54 -18 106 73 349 200 769 369 1154 466 117 30 113 29 230 51 47 9
94 18 105 20 60 12 135 24 175 28 25 3 86 10 135 15 187 21 573 30 765 16 214
-14 240 -16 345 -30 22 -3 58 -8 80 -11 50 -6 92 -13 125 -19 14 -3 41 -7 60
-10 65 -11 275 -56 306 -66 17 -5 40 -11 52 -14 80 -15 350 -99 509 -159 191
-71 238 -92 568 -251 387 -187 705 -422 1119 -829 56 -54 115 -104 131 -111
17 -8 46 -30 65 -50 32 -34 33 -37 11 -30 l-25 8 28 -34 c16 -19 37 -35 48
-35 19 -1 70 -53 63 -64 -2 -4 24 -36 58 -71 98 -101 287 -344 287 -368 0 -5
4 -11 8 -13 30 -13 278 -462 382 -693 53 -118 69 -150 70 -139 0 5 -11 39 -25
74 -36 91 -24 85 15 -7 18 -43 38 -91 45 -108 45 -106 170 -501 189 -594 15
-77 42 -102 31 -28 -5 31 -3 38 5 27 15 -21 4 27 -27 115 -14 39 -27 84 -29
102 -4 29 -26 98 -66 203 -7 20 -21 48 -31 64 -10 15 -21 40 -23 54 -23 126
-138 397 -263 620 -21 37 -60 108 -86 157 -267 499 -637 936 -1165 1378 -138
116 -425 311 -635 432 -112 64 -388 205 -403 205 -6 0 -25 14 -43 31 -43 40
-97 66 -259 127 -308 114 -622 196 -950 248 -14 2 -38 6 -55 9 -16 3 -50 7
-75 10 -25 4 -61 8 -80 11 -19 3 -64 7 -100 10 -36 3 -81 8 -100 11 -38 6
-716 14 -721 8z m31 -273 c0 -5 -21 -9 -47 -11 -25 -1 -55 -7 -65 -12 -10 -5
-46 -12 -81 -14 -57 -4 -59 -4 -24 6 20 6 37 14 37 18 0 4 35 8 77 10 43 1 80
4 82 7 7 7 21 4 21 -4z m323 1 c-56 -2 -151 -2 -210 0 -59 1 -13 3 102 3 116
0 164 -2 108 -3z m1331 -44 c73 -21 115 -44 55 -29 -44 10 -147 48 -135 49 5
1 41 -8 80 -20z m-2329 -8 c-9 -8 -36 -10 -30 -2 2 4 11 8 20 8 8 0 13 -3 10
-6z m934 -66 c-10 -10 -156 -15 -184 -6 -23 7 -6 9 79 10 60 1 107 -1 105 -4z
m309 -10 c13 -2 45 -5 72 -6 27 -2 47 -5 45 -8 -1 -3 -69 -4 -151 -1 -113 4
-148 8 -152 19 -4 11 11 12 79 7 46 -3 94 -8 107 -11z m175 -22 c-7 -2 -21 -2
-30 0 -10 3 -4 5 12 5 17 0 24 -2 18 -5z m47 -3 c8 -5 11 -10 5 -10 -5 0 -17
5 -25 10 -8 5 -10 10 -5 10 6 0 17 -5 25 -10z m240 -4 c73 -14 70 -25 -5 -20
-27 1 -63 4 -80 4 -29 2 -29 2 -5 10 l25 7 -30 5 -30 5 30 1 c17 0 59 -5 95
-12z m-173 -2 c-3 -3 -12 -4 -19 -1 -8 3 -5 6 6 6 11 1 17 -2 13 -5z m44 -12
c-7 -2 -18 1 -23 6 -8 8 -4 9 13 5 13 -4 18 -8 10 -11z m664 -30 c-2 -3 1 -12
7 -20 11 -13 8 -14 -22 -7 -19 4 -38 9 -42 12 -14 8 -8 21 10 25 21 5 55 -2
47 -10z m165 -135 c13 -5 13 -6 -1 -6 -8 -1 -24 6 -35 15 -19 15 -19 15 1 6
11 -5 27 -12 35 -15z m125 -42 c55 -19 86 -36 100 -54 10 -14 13 -21 5 -15 -8
6 -37 19 -65 30 -27 10 -69 29 -93 41 -23 13 -48 21 -54 17 -7 -4 -8 -3 -4 5
4 7 13 10 19 8 7 -3 48 -17 92 -32z m162 -61 c-5 -5 -57 13 -57 20 0 3 14 0
31 -6 16 -6 28 -12 26 -14z m33 -8 c0 -2 -7 -7 -16 -10 -8 -3 -12 -2 -9 4 6
10 25 14 25 6z m28 -28 c-9 -7 -7 -8 10 -5 14 3 20 1 15 -6 -4 -7 0 -8 11 -4
11 5 15 3 10 -5 -5 -8 -1 -9 12 -4 14 5 16 4 8 -4 -8 -8 -24 -6 -58 11 -31 14
-43 25 -35 30 7 4 19 5 26 2 12 -5 12 -7 1 -15z m135 -62 c74 -30 99 -52 37
-32 -73 22 -100 35 -100 46 0 13 -5 14 63 -14z m293 -142 c18 -14 18 -14 -6
-3 -31 14 -36 19 -24 19 6 0 19 -7 30 -16z m354 -111 c35 -23 90 -75 90 -86 0
-9 -115 76 -125 93 -9 15 8 12 35 -7z m415 -327 c49 -48 49 -48 -22 10 -40 32
-73 62 -73 68 0 11 25 -9 95 -78z m335 -333 c125 -130 217 -236 369 -423 16
-20 74 -98 130 -174 55 -76 101 -134 101 -129 0 4 12 -12 26 -37 75 -131 96
-174 81 -161 -12 9 -17 10 -17 2 0 -24 -20 2 -71 92 -152 266 -376 560 -610
796 -79 80 -125 135 -104 124 11 -6 54 -47 95 -90z m1088 -1128 c-3 -3 -9 2
-12 12 -6 14 -5 15 5 6 7 -7 10 -15 7 -18z m62 -130 c0 -5 -5 -3 -10 5 -5 8
-10 20 -10 25 0 6 5 3 10 -5 5 -8 10 -19 10 -25z"/>
<path d="M6118 10233 c7 -3 16 -2 19 1 4 3 -2 6 -13 5 -11 0 -14 -3 -6 -6z"/>
<path d="M7920 9716 c0 -2 7 -7 16 -10 8 -3 12 -2 9 4 -6 10 -25 14 -25 6z"/>
<path d="M9450 8846 c0 -2 8 -10 18 -17 15 -13 16 -12 3 4 -13 16 -21 21 -21
13z"/>
<path d="M5505 8127 c-27 -23 -25 -13 -42 -242 -9 -128 -8 -142 8 -161 33 -41
100 -32 117 14 6 15 13 68 16 117 4 50 9 124 12 165 5 64 3 79 -13 98 -26 31
-68 35 -98 9z"/>
<path d="M4390 7862 c-36 -29 -33 -69 9 -115 60 -68 62 -70 165 -176 80 -81
105 -101 128 -101 37 0 68 32 68 71 0 32 -13 48 -236 276 -66 68 -94 77 -134
45z"/>
<path d="M6510 7783 c-60 -41 -296 -248 -308 -270 -28 -52 29 -113 86 -92 22
8 294 236 320 267 19 25 14 61 -13 87 -28 29 -51 31 -85 8z"/>
<path d="M5370 7533 c-347 -42 -668 -265 -830 -574 -40 -77 -94 -226 -104
-289 -3 -19 -8 -48 -12 -65 -8 -41 -9 -242 -1 -287 4 -21 10 -55 13 -75 18
-117 129 -368 180 -406 58 -44 140 -14 164 59 12 35 15 27 -63 180 -60 117
-79 200 -83 359 -3 114 0 154 16 215 79 307 289 536 581 634 99 33 160 41 294
39 138 -2 237 -26 365 -90 213 -107 369 -286 438 -503 19 -61 25 -85 38 -153
8 -46 33 -76 75 -89 81 -24 144 39 133 133 -6 51 -26 127 -49 189 -9 25 -19
54 -22 65 -13 41 -78 153 -129 222 -174 234 -428 387 -722 433 -58 10 -215 11
-282 3z"/>
<path d="M6833 7127 c-100 -34 -192 -70 -204 -80 -39 -34 -8 -116 45 -117 31
0 390 121 408 139 9 9 19 28 22 43 6 33 -33 78 -66 77 -13 0 -105 -28 -205
-62z"/>
<path d="M3846 7119 c-29 -22 -35 -64 -13 -92 6 -9 71 -44 142 -78 72 -33 144
-67 162 -76 66 -31 131 26 102 90 -10 23 -95 69 -287 154 -64 28 -72 28 -106
2z"/>
<path d="M5258 7115 c-141 -35 -260 -115 -348 -237 -38 -52 -39 -90 -4 -117
48 -37 73 -25 147 72 37 47 135 112 201 133 28 9 94 18 146 19 83 3 96 5 112
25 23 29 23 62 -1 91 -17 21 -28 24 -107 25 -49 1 -115 -4 -146 -11z"/>
<path d="M10554 6872 c3 -5 8 -35 11 -68 11 -107 26 -176 45 -204 13 -20 13
-12 -4 73 -8 40 -20 102 -27 140 -7 37 -17 67 -21 67 -5 0 -7 -4 -4 -8z"/>
<path d="M3501 6378 c-28 -10 -36 -45 -17 -73 l16 -25 369 0 c344 0 369 1 384
18 21 23 21 42 3 68 -14 18 -30 19 -375 19 -199 0 -370 -3 -380 -7z"/>
<path d="M5508 6381 c-20 -7 -36 -34 -32 -54 9 -49 -26 -47 805 -47 l779 0 16
25 c14 21 15 31 6 50 -7 14 -17 26 -24 26 -37 4 -1540 3 -1550 0z"/>
<path d="M6365 6180 c-28 -10 -36 -22 -84 -115 -117 -223 -299 -377 -526 -444
-99 -29 -118 -32 -231 -36 -90 -3 -135 1 -229 22 -57 12 -96 5 -125 -22 -34
-32 -42 -70 -25 -110 19 -46 44 -62 125 -82 93 -22 356 -25 440 -4 228 55 391
139 532 274 143 137 268 335 268 423 0 68 -80 119 -145 94z"/>
<path d="M6697 6142 c-17 -19 -16 -57 3 -76 10 -10 973 -17 1028 -8 35 7 49
45 28 77 l-16 25 -514 0 c-482 0 -514 -1 -529 -18z"/>
<path d="M5050 6043 c-20 -26 -17 -50 8 -70 12 -10 132 -13 522 -13 478 0 508
1 523 18 10 10 17 28 17 39 0 48 0 48 -542 49 l-509 1 -19 -24z"/>
<path d="M3838 6036 c-25 -19 -23 -62 4 -80 19 -13 59 -16 233 -16 227 0 238
2 250 51 5 21 1 30 -16 43 -20 14 -57 16 -239 16 -163 -1 -219 -4 -232 -14z"/>
<path d="M6699 5919 c-23 -23 -24 -38 -3 -67 l15 -22 363 0 c338 0 365 1 386
18 28 23 21 68 -13 81 -12 5 -181 9 -375 9 -335 0 -355 -1 -373 -19z"/>
<path d="M10432 5704 c-1 -26 0 -45 3 -43 7 8 12 89 5 89 -4 0 -8 -21 -8 -46z"/>
<path d="M4364 5711 c-44 -8 -62 -49 -34 -83 17 -21 21 -22 335 -22 343 -1
375 3 375 47 0 13 -6 31 -13 41 -12 17 -37 18 -328 20 -174 0 -324 -1 -335 -3z"/>
<path d="M6556 5710 c-46 -6 -69 -33 -55 -68 5 -12 17 -26 28 -30 11 -4 179
-7 374 -6 385 0 387 0 387 54 0 51 -4 52 -362 53 -183 1 -350 0 -372 -3z"/>
<path d="M5853 5104 c-2 -6 -3 -42 -1 -80 l3 -69 63 -3 63 -3 -3 83 -3 83 -59
0 c-34 0 -60 -4 -63 -11z"/>
<path d="M6207 5112 c-16 -3 -17 -38 -17 -480 1 -451 2 -479 20 -517 27 -56
69 -78 145 -78 71 -1 154 20 150 37 -1 6 -6 30 -10 54 -6 34 -11 42 -24 37 -9
-4 -39 -9 -67 -12 -86 -9 -82 -32 -83 494 0 251 -3 459 -6 462 -6 6 -81 8
-108 3z"/>
<path d="M6621 5112 c-8 -3 -11 -130 -11 -483 1 -530 0 -523 64 -567 41 -28
120 -34 197 -15 l55 15 -9 52 -10 53 -36 -8 c-64 -15 -99 -11 -115 13 -14 20
-16 82 -16 483 l0 460 -54 0 c-29 1 -59 -1 -65 -3z"/>
<path d="M2125 5081 c-3 -2 -5 -237 -5 -521 l0 -516 352 0 353 1 5 30 c3 17 4
42 2 58 l-4 27 -289 0 -288 0 0 456 c0 251 -2 458 -5 461 -6 7 -115 11 -121 4z"/>
<path d="M4167 5080 c-9 -4 -12 -121 -10 -505 0 -275 1 -507 2 -516 1 -12 14
-15 64 -15 l62 1 3 186 2 187 183 0 c237 1 286 18 361 122 108 148 89 343 -44
464 -81 73 -105 78 -373 80 -131 0 -243 -1 -250 -4z m495 -134 c63 -30 108
-112 108 -195 0 -58 -15 -105 -47 -149 -44 -59 -69 -65 -260 -67 l-173 -1 0
216 0 216 168 -1 c138 -1 173 -4 204 -19z"/>
<path d="M7930 4938 l0 -127 -52 -3 -53 -3 -1 -40 c-1 -58 1 -60 56 -58 l50 2
0 -279 c0 -318 3 -331 73 -371 55 -30 149 -30 230 1 46 17 57 25 52 38 -4 10
-11 32 -17 50 -6 22 -14 32 -23 28 -91 -34 -165 -25 -180 24 -5 15 -9 411 -6
497 1 9 21 12 64 12 114 -2 107 -5 107 51 l0 50 -87 0 -88 0 1 127 2 128 -64
0 -64 0 0 -127z"/>
<path d="M3120 4806 c-44 -13 -143 -59 -167 -78 -10 -8 -8 -19 9 -51 11 -23
22 -44 24 -46 1 -2 15 6 31 16 82 56 214 84 288 60 80 -26 124 -92 125 -184
l0 -51 -52 14 c-54 15 -199 21 -254 10 -84 -16 -160 -65 -200 -128 -20 -31
-26 -54 -26 -97 0 -98 40 -164 125 -208 45 -24 64 -28 137 -28 104 0 182 28
247 88 l43 40 0 -31 c0 -18 10 -43 26 -62 24 -28 31 -31 78 -28 l51 3 -3 45
c-2 28 -10 50 -20 58 -15 11 -18 43 -22 240 -5 216 -6 229 -30 275 -52 103
-153 158 -288 156 -42 0 -97 -6 -122 -13z m263 -406 l47 -12 0 -55 c0 -30 -7
-70 -16 -88 -31 -66 -126 -116 -220 -117 -99 -1 -163 53 -172 144 -4 46 -3 50
35 86 22 21 55 43 74 49 43 14 189 10 252 -7z"/>
<path d="M5206 4805 c-61 -17 -176 -73 -176 -86 0 -5 9 -28 20 -49 l20 -40 68
35 c78 40 128 53 195 49 108 -6 173 -69 182 -178 5 -63 5 -64 -75 -45 -61 14
-195 14 -250 -1 -160 -43 -237 -156 -199 -293 16 -59 92 -132 158 -151 122
-36 262 -2 356 86 l31 28 2 -38 c3 -52 39 -82 98 -82 24 0 44 1 45 3 0 1 3 24
5 50 5 43 3 49 -15 54 -12 3 -21 13 -22 22 0 9 -2 104 -3 211 -3 208 -11 258
-53 321 -67 101 -234 146 -387 104z m269 -408 c39 -14 40 -15 41 -63 1 -61
-10 -91 -44 -127 -34 -37 -74 -57 -137 -72 -53 -13 -79 -11 -132 6 -37 12 -92
70 -94 99 -1 11 -2 30 -3 43 -3 47 43 98 113 123 46 17 201 11 256 -9z"/>
<path d="M7264 4811 c-96 -25 -203 -110 -243 -196 -131 -279 47 -585 339 -585
211 0 374 159 384 374 8 168 -74 311 -218 381 -49 24 -74 29 -145 32 -47 1
-100 -2 -117 -6z m198 -125 c112 -54 172 -192 144 -335 -30 -152 -197 -249
-331 -191 -67 29 -102 63 -136 135 -69 144 -14 319 121 388 45 24 65 28 110
25 30 -3 72 -12 92 -22z"/>
<path d="M8619 4805 c-108 -38 -185 -105 -230 -201 -108 -227 9 -497 243 -560
150 -40 318 12 403 124 19 24 33 48 30 52 -3 4 -26 13 -51 19 l-47 12 -40 -42
c-54 -56 -115 -82 -189 -80 -125 3 -220 87 -252 223 l-6 28 317 2 318 3 3 49
c7 106 -60 242 -153 314 -86 66 -244 92 -346 57z m217 -101 c73 -26 144 -117
159 -201 l5 -33 -255 0 c-284 0 -277 -2 -254 67 48 150 196 221 345 167z"/>
<path d="M5850 4426 l0 -383 63 1 62 1 3 382 2 382 -65 0 -65 0 0 -383z"/>
<path d="M8687 3770 c-7 -3 -13 -16 -12 -30 l0 -25 172 1 c153 0 170 -1 165
-16 -4 -8 -69 -139 -145 -289 -76 -150 -136 -275 -133 -278 6 -6 55 -8 60 -2
14 16 324 639 318 640 -26 4 -415 3 -425 -1z"/>
<path d="M6614 3762 c-35 -11 -114 -65 -114 -77 0 -7 9 -20 19 -29 17 -15 20
-15 28 -3 13 24 78 58 119 61 73 7 121 -25 130 -86 8 -45 -25 -79 -131 -133
-82 -42 -126 -78 -150 -125 -19 -36 -34 -105 -26 -117 7 -12 366 -12 377 0 4
4 9 16 11 27 3 19 -3 20 -162 20 -91 0 -165 2 -165 5 0 16 36 73 59 93 14 12
58 39 96 59 39 20 84 47 101 60 84 63 77 167 -14 229 -31 21 -132 30 -178 16z"/>
<path d="M2251 3746 c-18 -21 -96 -66 -115 -66 -11 0 -16 -10 -16 -31 0 -30 1
-31 33 -25 37 7 97 37 97 48 0 5 4 8 9 8 6 0 10 -80 11 -190 l1 -190 -66 0
-65 0 0 -29 0 -29 148 3 c81 1 150 3 155 4 4 0 7 12 7 26 0 24 -3 25 -60 25
l-59 0 0 228 1 227 -35 3 c-21 2 -38 -3 -46 -12z"/>
<path d="M4355 3740 c-147 -69 -175 -262 -54 -365 42 -35 72 -46 133 -50 64
-3 120 20 160 67 l33 38 -9 -60 c-18 -134 -81 -210 -173 -210 -47 0 -111 34
-133 69 -17 28 -18 28 -39 11 -21 -16 -21 -18 -4 -43 38 -59 118 -97 189 -91
120 10 192 99 217 269 27 188 -12 305 -119 360 -62 31 -142 33 -201 5z m192
-65 c52 -41 68 -71 68 -135 0 -47 -5 -63 -28 -94 -127 -166 -377 -10 -282 175
17 31 70 75 100 81 46 10 108 -2 142 -27z"/>
</g>
</svg>
